<svg xmlns="http://www.w3.org/2000/svg" width="244.568" height="52.864" viewBox="0 0 244.568 52.864">
  <g id="BG" transform="translate(-487.193 -641.248)">
    <path id="Path_22530" data-name="Path 22530" d="M700.451,649.515a1.333,1.333,0,0,0-.136.242l-.781.063.246.41c-.319.2-.669.04-1,.076l-.311-.276-.216.191a1.16,1.16,0,0,1-.268.062c-.443,0-.886-.019-1.346-.03-.224-.453-.783-.5-1.124-.848l-.861-.022-.328-.292c-.623-.026-1.255-.03-2.086-.059a7.411,7.411,0,0,1,.7.708c.058.079-.017.244-.038.419l-.537-.324-.518.3c-.406-.01-.9-.021-1.393-.038-.039,0-.076-.05-.132-.089-.02-.2-.042-.423-.063-.639-.2-.208-.47-.068-.7-.123l-.308-.279-2.082-.051c-.358.294-.078.479.149.705l-.5.335-.259-.211-.316.249a2.432,2.432,0,0,1-1.074-.2l.794-.309c-.431-.506-.64-.3-.856-.1l-.779.067.3.449-.178.416-.593-.9-1.26-.031-.142.75c-.349-.018-.187-.248-.239-.388-.216-.212-.273-.2-.73.124l-.6-.015-.3-.271-.305.251c-.323.085-.443-.166-.669-.318l-.575.252-.222-.218-.328.245-1.178-.029-.625-.578-.213.515c-.474.266-.692-.558-1.453-.08l-.094.068-.3-.254-.9-.022-.323.6-.182-.537c-.267-.229-.439-.039-.652.152l-.894-.022-.951-.513-1.839-.045c-.033.33.222.211.405.271a2.412,2.412,0,0,0,.164.444,2.71,2.71,0,0,0,.295.372l1.029.025.21-.5,1.034.528,4.032.1.338.294,3.849.094.317.29.584.014.317-.251.306.25.263-.232.362.287,1.165.029.259.254.322-.259,2.082.051.207.2c.038.027.075.076.113.076,1.388.038,2.774.071,4.14.1l.277.271,4.172.1.307.3,1.49.036.27.266.327-.248,1.177.029.3.271.317-.251.246.241,2.921.072.422.322,2.348.058.271.266,2.356.058.329.287.315-.252.259.254c.767.089,1.6.026,2.429.1l.246.242.32-.216.3.241,1.445.036.336.294,2.358.058.321.293,2.078.051.262.257c.767.09,1.6.026,2.429.1l.239.235,4.9.12a2.791,2.791,0,0,0,.716.311,1.534,1.534,0,0,1,.639.258c.193.108.452.122.588.335l.915.022.269.57.369.009c.041.247.084.5.131.782l.411.091.949.93c-.007.234-.014.5-.02.7.194.379.471.666.256,1.049-.037.03-.074.087-.11.086-.5-.006-.992-.02-1.482-.032l-.219-.214a2.148,2.148,0,0,0-.975-.073l-.392.3-.616-.346-1.969-.048-.27-.265-2.092-.051-.318.251-6.55-.161c-.106.185-.211.372-.322.556a.283.283,0,0,1-.107.1c-.276.147-.274.467-.454.647-.232.234-.2.588-.526.778a2.29,2.29,0,0,0-.6.586,2.631,2.631,0,0,0-.262.538l.522.187c-.006.207-.011.389-.017.58l.743.385.411-.2a.85.85,0,0,1,.264.084,4.941,4.941,0,0,1,.384.372l-.612.2.017.38c.312.088.55-.533.841-.03l-.354.342.657.645c.059.361-.435.163-.59.352.058.163.058.163,1.369.23.029.115.061.239.146.566l.794.711c0,.156-.009.295-.016.56l.734.335c.044.613-.462.89-.5,1.258l.309.328c-.253.232-.532.125-.838.047l-.075-.38c-.024-.024-.057-.085-.093-.087-.493-.018-.987-.029-1.555-.042l-.361.4.212.258-.265.271.186.207c.181.288.038.609.062.987l-.527.06c-.038-.191-.063-.318-.09-.449a9.256,9.256,0,0,0-1.145-.317l.284.344-1.042.643c.03-.031.148.211.117.429a4.84,4.84,0,0,0-.02.545l1.446,1.419c0,.087,0,.178-.008.267a2.47,2.47,0,0,1,.688.426,3.842,3.842,0,0,1,.465.926c.05.119-.01.281.047.394.136.274.312.53.485.817l-.259.259.571.592-.039.283c-.2.2-.467.052-.708.1l-.323.266-1.479-.037-.314-.284a2.146,2.146,0,0,0-.3.016c-.041.008-.073.059-.119.1l.268.3a3.371,3.371,0,0,0-1.015,1.5l-.363-.009-.446.393c-.005.172-.01.354-.015.536l-.311.3.276.292c-.005.194-.01.377-.015.508l-.364.461.319.413c-.014.491-.03,1.038-.046,1.634-.245.4-.667.793-.607,1.38l-.307.292c-.005.178-.01.362-.016.547-.432.148-.8.475-1.334.383l-.306-.269-.314.246-.3-.261-.576.508-.316-.254-1.776-.044-.318.254-.8-.02c-.224.108-.39.185-.553.269s-.323.173-.49.264l-.79-.019-.4.26-2.638-.065-.607.536-1.2-.029-.3-.263-.329.264-.87-.021-.322.255c-.577.17-.95-.509-1.524-.257l-.263.232-2.98-.073-.27.238c-.531.054-1.069-.055-1.628.028.218.223.218.223,1.1.351,0,.379-.453.021-.528.308l.243.28c-.3.336-.735,0-1.076.163l-.238.21-.308-.25-.619.51-.366-.32-.571.265-.2-.2-.608.3-.331-.692-1.339.56-1.324-.032-.287.253-.453-.268-.6.284c-.4-.038-.5-.419-.775-.571l-1.039-.026-.622.55-.49-.3-.474.6-.326-.32-1.192-.029-.289-.283-.478.268-.466-.284-.3.222-.584-.014-.326-.3-.219.544-.979.018-.22.194c-.312-.016-.475-.525-.914-.109l-.4-.689-.8-.02c-.181.283-.287.631-.656.789l-.237-.232-1.431-.035-.381-.291-.924-.023-.261.23-1.1-.027-1.191.583-.442-.311-.216.191a1.377,1.377,0,0,1-.273.05c-.143,0-.378.014-.414-.052-.243-.447-.913-.042-1.128-.529l-.335.256-.582-.015-.6-.561c-.386-.067-.5.258-.744.39s-.5.228-.767.349l-.945-.529-.81-.02-.336-.289-.215.507c-.327,0-.156-.238-.213-.409l-.427-.161-.541.638-.37-.329-.592-.015-.436.384c-.042.185-.067.415.185.424.365.012.457.281.668.482a1.921,1.921,0,0,1-1.144.02c-.024-.239-.045-.458-.067-.675-.2-.208-.47-.068-.7-.123l-.32-.29-2.4-.059-.19-.551c-.162,0-.352-.023-.538-.01a.8.8,0,0,0-.252.116l.276.3c-.035.03-.071.09-.107.09-.59-.008-1.18-.025-1.827-.041l-.363-.254c-.446.013-.566.388-.833.526-.322.085-.448-.156-.58-.255-.35-.109-.469.167-.656.239l-.576-.014-.845-1.119-.237,1.008c-.038.027-.077.078-.114.078-.495-.007-.989-.021-1.481-.033a.61.61,0,0,0-.623-.293.541.541,0,0,1-.531-.3l-.332.294-1.788-.044-.29.256c-.673-.017-1.365-.032-2.058-.054-.038,0-.074-.051-.111-.079l.194-.665a.946.946,0,0,0-.259-.086c-.444-.015-.889-.019-1.334-.018-.036,0-.072.06-.128.109l.589.6-.114.407-.351-.29-.309.248-.3-.269-.259.229-1.262-.031-.231-.226-2.006-.05c-.423-.341-1.014-.408-1.253-.905-.384.3-.041.728-.262,1.04-.088.025-.2.1-.26.067-.735-.359-1.461-.733-2.224-1.12l-.166.418c-.246.106-.537.13-.711.316l-.562-.371-.518.729-.39-.328c-.159.079-.322.224-.48.221s-.3-.16-.456-.249l-.25.22-.835-.02-.362.249-.5-.274-.444.276-.568-.528c-.329-.1-.455.159-.6.226a4.93,4.93,0,0,0-.646.054c-.054.012-.078.147-.116.225l-3.184-.078-.17.746a.371.371,0,0,1-.526-.049l.274-.286c-.292-.325-.729-.049-1.016-.186l-.409-.322-.543.3-.519-.013c-.336-.249-.336-.249-.719-.195l.52,1.007c.025.18-.03.487-.013.828l-.828-.021c-.027-.114-.056-.239-.083-.351l.32-.308c-.361-.152-.215-.566-.491-.791-.255-.208-.656-.175-.821-.481l-1.487-.036a2.373,2.373,0,0,0,.549,1.1l.941.023.3.564c-.123.129-.39-.066-.6.026l-.335-.307-1.334-.033c-.039-.352.113-.714-.038-1.055-.3-.057-.579-.177-.879.111l.678.511a1.794,1.794,0,0,1-.319.138.911.911,0,0,1-.292-.005c-.089-.014-.216-.024-.253-.08-.193-.281-.66-.164-.808-.5-.327-.049-.676.061-.985-.105l-.2-.2-.318.265-.583-.015-.341-.3-.128.368c.162.306.539.429.591.77l-2.272-.056-.161-.481c-.19-.148-.2.1-.528.154l-1.983-.049-.2-.2-.743.148-.111-.77c-.239.058-.291.313-.532.26.039-.168-.07-.258-.218-.277-.2-.026-.392,0-.378.263l-1.336-.033-.318.261-.586-.014-.323-.278-.813-.02-.348-.261-.849-.021c-.562.4-1.4.435-1.874,1.064l-.449-.127.369-.371-.563-.114-.115.46c-.28.24-.638.039-.992.088l-.324.251-.3-.27-.582-.014-.332.265-.271-.551-.274.242-.317-.249-.846-.021-.332-.287-.314.252-.213-.209a2.223,2.223,0,0,0-.987-.076c-.037.033-.11.08-.1.094.091.19.364.31.234.6-.224.239-.509.1-.785.054l-.2-.2-3.1-.076-.106.408a.781.781,0,0,1-.809.007c.033-.242.5-.437.115-.734l-.334.255c-.512.054-.575-.482-1-.621l-.463.284-.253-.225-.976.461-.228-.224-.685-.017-.422.517-2.2-.054-.212-.19c-.3-.209-.662-.017-.956-.135l-.612.54-.307-.232-.318.227-.584-.014-.3-.266-1.165-.029-.319-.285-.217.191c-.328.159-.668-.007-.91.054l-.63-.408-.469.645-.755-.018c-.178-.075-.255-.4-.692-.2-.225.174-.051.379.193.567-.1.279-.22.267-.649-.052-.335-.206-.792.112-1.1-.222s-.756-.045-1.088-.2l-.187-.518c-.421.3-.987.337-1.275.874l-.221-.616-1.328-.033c-.032.129-.063.255-.1.412-.006.006-.042.063-.079.064-.473.015-.981.183-1.392-.15-.225-.183-.47-.071-.691-.139s-.288-.412-.621-.253l-.28-.6-.374.3c-.243-.107-.5-.318-.738-.3-.329.023-.48-.221-.737-.27l-.2.485c-.227-.094-.326-.38-.628-.277l-.385.314-1.156-.586-.236.208-.315-.255-.86-.021-.644-.6-.436.089.29.333c-.114.139-.114.139-1.281.115l-.324.229a2.929,2.929,0,0,1-1.089-.466l-.674.4.35.493c-.049.035-.126.131-.186.122a1.831,1.831,0,0,1-.381-.142,3.114,3.114,0,0,0-.384-.14c-.093-.023-.214.02-.293-.018a2.288,2.288,0,0,1-.36-.266,9.656,9.656,0,0,0-1.277-.023l-.111.708a.377.377,0,0,1-.543-.027l.257-.281c-.048-.192-.415-.276-.214-.556a9.712,9.712,0,0,0-1.627-.75c-.031-.007-.076.046-.123.077.05.278.341.388.5.609l-.274.279.273.294c-.006.187-.01.371-.018.622l-.522.057-.1-.48a1.94,1.94,0,0,0-1.088-.057c-.018.281.523.507-.028.819l-1.775-.9-1.38-.034-.318.244L537.47,691l-.6-.552-.576.508-.709-.017-.085-.441-.41-.143-.521.584-.836-.021c.022-.283-.293-.346-.408-.56l-.326.253-.3-.269-.592-.014-.225.2a1.137,1.137,0,0,1-.683.031l-.3-.243-.588.518-.268-.557-.424.333-.437-.668c-.326.257-.113.516-.3.8l-.44.06-.089-.46-.414-.406-.425.452c-.023.147-.056.364-.088.565-.061.037-.1.083-.139.082-.493-.007-.986-.021-1.439-.032l-.327-.275c-.382-.118-.552.453-.979.162-.018-.093-.042-.22-.072-.374-.22-.21-.262.119-.46.159l-.533-.013-.332.273-.586-.015-.325-.293-.91-.022-.188-.535-2.417-.06-.223-.219-.9.223-.378-.325-.866-.021-.315-.288-.3.249c-.223-.005-.511.065-.6-.028-.324-.343-.986-.26-1.048-.783-.423-.071-.765-.143-1.009.2l-.311-.277c-.22-.055-.487.085-.7-.118a.972.972,0,0,1,.612-.458,2.809,2.809,0,0,0,.752-.5l2.095.052.767-.837.7.017.351-.275,5.634.138.261-.23,1.433.036.434-.3,3.244.08.322-.284,1.192.03.277-.245,1.773.044.391-.322.556.311.258-.228,1.192.029.322-.284,2.086.051.321-.284,2.98.074.28-.247,1.17.029.339-.273a1,1,0,0,1,.6.275l.259-.228c.485-.079,1.023.042,1.554-.02l.27-.238,1.192.029.323-.284,2.086.051.284-.25,1.761.043.351-.276,2.36.058.334-.275,2.067.051c.384-.349,1.006-.347,1.178-.776a.6.6,0,0,1,.605.232c.139.118.219.31.462.332.7-.131.557-.847,1.137-1.171-.3-.117-.428-.156-.542-.214s-.236-.143-.4-.247l-.685.542-.652-.335c0-.046.022-.121,0-.133-.2-.11-.412-.191-.594-.316a3.349,3.349,0,0,1-.418-.4l-.321.261-.582-.014-.306-.278-.269.237-1.12-.027-.687.408-.415-.671c-.428.047-.291.279-.4.444-.267.207-.62.021-.96.064l-.31-.271-.475.314-.442-.347-.588-.014-.58.512-.316-.241-.882-.022-.308.224c-.392-.016-.852.152-1.18-.271l-.326.255-.582-.015-.305-.281-.739-.018q.01-.341.019-.684c-.277-.151-.244-.457-.387-.674a2.424,2.424,0,0,1-.457.221c-.213.054-.488-.108-.639.164.125.342.188.517.323.557.392.115.668.5,1.141.416.029.177-.088.261-.244.267-.292.01-.6-.057-.8.262-.72-.016-1.45-.036-2.215-.054-.011-.383-.019-.695-.029-1.042l-.465-.113-.145-.437c-.334-.352-.485.086-.724.145l-.234-.229-.915-.023-.293.207c-.312.021-.682.164-.849-.252l-.647-.016-.277-.575-.306.258c-.345.055-.785-.042-1.09-.015l-1.073.486c-.122-.286-.175-.611-.5-.781-.445.312-1,.423-1.467.7a.623.623,0,0,1-.792-.078c-.2-.217-.452-.119-.66-.164-.462.114-.475.536-.7.8-.383-.341-1.116-.364-1.081-1.083l-.439-.037-.229.514-1.131-.028a1.255,1.255,0,0,1-.981.274l-.31-.269-.317.255-.88-.021-.31-.272-.259.229-.835-.021-.389.267-.283-.224c-.206.048-.3.387-.743.11l-.171-.152-.323.259c-.3.01-.619-.107-.836.229l-.97-.024-.23-.225-1.55-.038-.261.231-1.167-.029-.348.277-1.767-.044-.226.188a.916.916,0,0,1-.258.078c-.446,0-.892-.018-1.312-.028a2.149,2.149,0,0,0-.348-.28,1.956,1.956,0,0,0-.411-.105c.051-.066.076-.125.1-.125.533-.022,1.066-.036,1.587-.053l.281-.248,1.192.029.281-.248.269.234.782-.346c-.007-.111-.015-.236-.022-.35a2.151,2.151,0,0,0-1.029-.078l-.247.218-1.736-.043-.373.264-1-.025c-.016-.153-.028-.279-.04-.395.331-.247.685-.064,1.015-.105a1.567,1.567,0,0,0,.661-.806l.253.248.321-.213.327.254a1.351,1.351,0,0,0,.514,0,10.567,10.567,0,0,0,1.039-.518l2.007.049.334.3c.074-.179.14-.339.226-.546l1.226.03.324-.286,1.788.044.288-.254,1.418.035c.257-.09.366-.388.684-.272l.3.273.317-.252.219.215a2.139,2.139,0,0,1,.595-.193.723.723,0,0,0,.644-.26l2.071.051.345-.271.307.275,1.471.036.335.293c.076-.181.143-.34.21-.5.286-.148.712.112.92-.27l.932-.041.318-.235,1.149.028.351-.277,1.765.044.228-.187a.907.907,0,0,1,.257-.079c.346,0,.693.013,1.032.021l.22.216a2.177,2.177,0,0,0,.99.068l.271-.239,2.118.052a.623.623,0,0,0,.093-.283l1.674.041.324-.268c.34-.04.692.131,1-.081.041-.171.108-.342-.1-.414l-.472.262-.468-.29-.245.216c-.235,0-.48.074-.7-.069l-.171-.5-.5.069.282.347c-.206.211-.42.431-.629.69l-1-.024-.256-.252-1.17-.029-.356-.294-.374.261-.094-.486-.337-.115c-.3.2-.586.373-.586.74a.863.863,0,0,1-.258.085c-.547-.005-1.092-.022-1.627-.036l-.3-.268-.318.242c-.389.1-.526-.48-.969-.21l-.091.362c-.241.2-.515.112-.809.015,0-.25.548-.448.108-.747l-.91.8a1.9,1.9,0,0,0-.529,0,2.236,2.236,0,0,0-.518.308l-.453-.319-.313.25-.583-.014-.545.481c-.473-.071-.411-.51-.619-.78l-.327.255-.577-.014-.327.267-.891-.022-.241-.236-1.05.469-2.31-.057-.487.56-1-.025-.4-.4c.08-.185.392-.276.282-.554l.613-.57c0-.155.009-.294.012-.432a1.242,1.242,0,0,1,.139-.222c.257-.269.623-.5.757-.808.143-.333.543-.434.622-.721.071-.26.124-.349.427-.413.254-.053.453-.327.689-.514l.3.008.555-1.064,1.394.034c.472-.3,1.064-.338,1.312-.853l.341.3.592.014.891-.786.907.022.3.251.577.014.466-.334c.048-.522-.367-.63-.547-.889.066-.05.132-.142.2-.142.447,0,.894.015,1.341.026l.5.31.661-.317.449.321c.85.021,3.258-4.626,1.579-4.667l-.261.23-1.248-.031-.371-.3-.665.342-.439-.294-.609.5-.213-.209c-.4-.2-.726-.014-1.1.224l-.468-.287-.3.224-.569-.014-.334.274-.585-.014-.3-.273-.586-.014-.382.29c-.122-.059-.243-.12-.367-.175a1.5,1.5,0,0,0-.38-.146c-.137-.018-.361-.027-.411.044-.283.4-.916-.009-1.145.454-.053,0-.1.008-.149.007l-1.938-.047-.38.311-.7-.341c-.323.076-.468.338-.764.548l-2.669-.066-.289.255-.448-.412.429-.385.946-.027c.343-.158.351-.534.572-.742s.136-.518.42-.681a.757.757,0,0,0,.448-.743l.7.017.458-.4-.046-.34-.9.227c-.25-.223-.5-.336-.552-.661-.029-.192-.265-.357-.451-.586l-.634.32c-.032-.136-.061-.262-.106-.452l-.382-.335-.484.272-.438-.324-.306.246c-.168-.156-.181-.315-.01-.531l1.454.036.542-.409-.43-.422-.28.212c.023-.023-.011.04-.044.039-.6-.009-1.191-.025-1.784-.039l-.219.193a1.024,1.024,0,0,1-.265.068c-.643-.009-1.286-.028-1.891-.043l-.327-.267-.567.5-.979.028-.217.529-.242-.209c-.3-.184-.652-.069-.977-.1l-.321.251-.252-.247-.33.224-.915-.023c-.14-.039-.219-.365-.557-.26l-.322.256-1.18-.029-.332-.3-.219.539-1.227-.03-.3.266-1.088-.027-.589.328-.489-.315-.539-.014-.318.255-1.472-.036-.328.263-.252-.247-.947-.074-.229-.224-.437.233c-.417-.006-.514-.389-.784-.574l-1.181-.029-.311-.278-.438.386c.09.1.181.2.273.3-.3.265-.661.061-1.017.111l-.333.255-.566-.013-.41.337-.466-.66-.289.255c-.338.057-.682.131-.96-.3l-.475.6-1.607-.039-.279.247-.643.026c-.188.29-.492.25-.941.234l-.316-.476c.5-.228,1.106.076,1.673-.109l.1-.378c.036-.032.072-.092.108-.091.595.009,1.189.025,1.77.039l.237-.192a.874.874,0,0,1,.256-.081c.347,0,.694.013,1.028.021l.387-.312.51.254a3.067,3.067,0,0,1,.545-.176c.188-.029.386.023.533-.147.191-.222.46-.073.72-.118l.321-.254,1.466.036.342-.278.882.022.286-.253c.366-.043.8.034,1.182.01l.337.27.577-.509,1.766.044.346-.277,1.473.036.222-.187c.037-.029.075-.082.112-.081.694.012,1.388.03,2.071.047l.268-.237c.488-.084,1.027.044,1.558-.023l.27-.238,2.086.052.291-.257,1.435.036a3.717,3.717,0,0,1,.659-.282l.319.287.184-.184a2.209,2.209,0,0,1,1.021-.052l.233.229,1.05-.47.683.017c.284-.076.374-.414.748-.218l.267.56.208-.524.9-.322,2.164.053.324-.286,2.385.059.288-.254,1.757.043.359-.277,2.357.058.337-.277.626.015.188-.469c.327-.178.669.016,1.012-.09l.2.557c.277-.124.563-.229.822-.376a2.856,2.856,0,0,0,.444-.382l.822.02.826-.416c.067-.36-.226-.447-.395-.69a3.389,3.389,0,0,1-.674-.026c-.264-.059-.5-.239-.767-.272a.764.764,0,0,1-.629-.3l-.324.247-.3-.26-.325.26c-.3-.024-.623.077-.819-.269l-2.123-.052-.356.248-4.734-.116-.283.249-.311-.268-.583-.014-.322.257-.257-.251-.5-.044-.632.308-.389-.3-2.948-.073-.483.3-.477-.343-6.212-.152-.312-.284c-.4-.226-.5.547-.987.114l-.062-.252c.095-.063.169-.157.243-.156.944.013,1.888.039,2.867.064l.32-.228.48.3.478-.313,2.041.05.325-.262.281.275c.166,0,.405.013.644.015.1,0,.251.015.275-.028.253-.447.909,0,1.146-.458l.547.311.389-.32,1.18.029.338-.278,3.559.088.279-.247,2.682.066.324-.286,3.279.081.287-.253,4.394.108c.266-.084.358-.415.774-.193l.272.249,1.2-.526.2.193c.336.068.675.156.928-.2l2.66.065.342-.268.443.338.508-.341,1.453.035.261-.23,4.115.1.4-.276,2.865.07a.671.671,0,0,0,.171-.075.517.517,0,0,1,.533-.2l.3.263.211-.171c.037-.029.075-.084.111-.084.794.014,1.587.036,2.372.055l.225-.2c.04-.023.08-.068.118-.067.891.018,1.781.041,2.625.061l.346-.249.249.245.329-.239,3.24.079.345-.277,2.665.066.222-.187c.037-.029.076-.082.112-.081,1.091.022,2.182.05,3.262.076l.228-.2c.451-.19.967.1,1.417-.149-.033-.045-.057-.107-.083-.108q-4.457-.156-8.916-.3l-.369.261c-.317.04-.663.1-.889-.255l-.6-.015-.312.253-.3-.272-.581-.014-.328.247-.247-.242-5.383-.133-.306.219-.295-.243-.309.247-.3-.269-.278.245-3.874-.1-.324.286-2.385-.059-.287.254-4.439-.109-.358.277-1.463-.036-.337.278-.583-.015-.328.268c-.16,0-.353-.066-.45,0-.428.288-1.022.159-1.459.555l-.521-.321-.532-.013-.318.248-.881-.022c-.182-.117-.192-.276-.075-.5l.423-.069c.217-.142.076-.4.135-.652l.406-.385.961.024.315-.564,1.424.035.351-.277.6.015.414-.407c.147-.089.187-.134.226-.133.447.006.894.019,1.34.029l1.164-.534,1.359.033.284-.25.87.022.347-.277,2.067.051.341-.277.879.022.283-.249c.669-.038,1.4.051,2.118.024l.286-.253,2.384.059.291-.257,3.241.08.348-.262.349.245c.346.064.409-.176.6-.253l3.541.087.277-.244,7.748.19.289-.254.451.269.662-.315.427.312.158-.149c.076-.053.114-.1.152-.1q4.914.115,9.813.237l.232-.205c.374-.1.736-.156.951.242l.3-.262,5.033.124.352-.27.355.317.566-.279.287.237.289-.255,2.384.059.287-.253,3.248.08.357-.277,1.464.036.337-.278,1.774.043.341-.277.521.013.526-.309.406.31.3-.217.3.258,1.176.029.318-.255.3.265.584.014.317-.23.4.312.539-.3.772.019c.246-.092.343-.416.757-.19l.188.167,1.064-.526.522.3.818.02.318-.238,1.155.029.345-.277,4.471.11.136-.137c.106-.08.144-.133.181-.132.892.017,1.785.04,2.666.062l.283-.249,1.172.029a1.188,1.188,0,0,1,.9-.279l.33.26.318-.233,2.349.058.341-.277,1.476.036.321-.264.6.015c.176.3.475.294.825.289l.332-.222.471.279.492-.292,1.134.028.461.35.772-.584c.214.158.007.616.631.524L629.7,643l.733.679,1.137-.5a1.33,1.33,0,0,0,.876.224l.638-.538.292.612.245-.585.335.254.885.022.307-.228.3.26,1.177.029.33-.269.874.021.318-.253.584.014.316.253.295-.259,1.49.036.284-.25,1.467.036.345-.277.883.022.307.273.272-.24,1.192.029.3-.265,2.4.059.3.239.881.022.318-.241,2.35.058.335-.272.3.268.246-.217.637.316.3-.485c.6-.215.733.013.9.168l1.186.029.323-.26.254.25.32-.214.294.23.319-.238,2.653.065.333-.274.2.2a1.016,1.016,0,0,0,.26.082c.444.019.889.025,1.3.036l.412-.315.491.27.53-.243.366.319.321-.259,2.971.073.228-.2c.188-.113.191.121.451.19l1.7.041.308-.212,1.225.03.247.242.326-.25,4.444.109.333-.267.24.235a10.725,10.725,0,0,0,1.221.084l.289-.255,1.552.038.24.235.32-.23.295.254.211-.173c.037-.029.075-.083.112-.082,1.389.029,2.779.064,4.148.1l.4-.313.524.271.443-.238.483.314.541.013.318-.257.884.022.317.289.58.014.248.243.653.016.441-.366.01-.354.522-.059.091.448.736.376.279-.23.586.014.3.261,1.8.044.261-.23,3.071.075c.094.019.165.358.511.253l.323-.25,1.48.036.269.246.973-.466.227.222.949.023.26-.23.313.263.879.022.286-.232.988.529.119-.451.771-.119.231-.2.9.022.294.258.324-.26.874.022.325-.253.252.247.325-.221.4.753c-.007.262-.019.665-.03,1.068-.185.15-.388.3-.2.608l.4.072a1.843,1.843,0,0,1,.209-.487,4.365,4.365,0,0,1,.531-.473c0-.1.006-.195.009-.3l.815-.346c.133.218.111.383-.071.506s-.132.321-.174.491a3.948,3.948,0,0,1-.293.61c0,.11-.011.383-.019.689.073.164.387.268.265.554l-.359.348.538.089a1.757,1.757,0,0,0,.115-.99l-.216-.211a.654.654,0,0,1,.1-.183c.2-.186.407-.363.611-.543.267.223.053.472.148.652l-.391.444.323.456-.222.2c.057.275.343.389.509.608l-.288.287c0,.126-.007.263-.013.448.08.154.177.348.28.538.081.148.17.291.247.422a1.811,1.811,0,0,0-.26.322c-.033.067.018.17.032.257.341.382.487-.077.652-.124l.7.321c.118.191.1.49.361.648-.005.187-.011.37-.015.546-.314.284-.671.525-.759.943l-.9-.022-.471-.812-.726-.018-.313.276-.356-.741-.4.322a.879.879,0,0,1-.258.077c-.645-.008-1.289-.028-1.923-.043l-.851-.834-.634-.016-.331.494.132.13c-.271.185-.271.189-1.012.148l-.205-.2c-.039-.024-.077-.068-.116-.069-.393-.014-.787-.022-1.149-.031l-.252.223c-.233-.053-.339-.237-.483-.421l.543-.167c.005-.26-.309-.295-.361-.474l-.661-.016c-.064.157-.13.317-.21.509l-.691-.017-.206-.2-1.669.744-.617-.015c-.134-.371-.5-.553-.73-.84-.194.113-.323.361-.611.252l-.3-.272c-.518-.013-1.01-.027-1.5-.033-.036,0-.072.06-.129.11.007.107.015.232.022.336l.9.393.435-.237.239.235.318-.243.3.273ZM577.124,685.879a.8.8,0,0,0,.284,0c.306-.119.6-.258.951-.41-.751-.142-.751-.138-1.223.01,0,.133-.008.266-.012.4l-.461-.011-.249-.286-.442.312-.628-.337c-.033-.079-.071-.23-.1-.228-.5.032-.856-.322-1.217-.41l-.568-.855-.354.658-.213-.612a1.687,1.687,0,0,0-.536,0c-.3.1-.571.278-.87.384s-.591.152-.888.225a3.916,3.916,0,0,0,1.443.205c.486.015.971.024,1.392.035l.563.568,1.345.033c.006.283-.311.331-.442.545-.226-.049-.473.065-.676-.075l-.221-.217-.319.251-.286-.255c-.826-.02-1.617-.041-2.407-.055-.035,0-.072.059-.161.138l.4.907c.64.045.64.045,1.563-.469.417.01.86.017,1.3.036a1.036,1.036,0,0,1,.26.082l.207.2c.345.008.691.011,1.037.03a.888.888,0,0,1,.25.094l.207.185,1.486.037c.174-.238.661-.336.362-.779l-.684-.089Zm59.389-33.218.744.018.3.278a2.165,2.165,0,0,0,.3,0c.039,0,.072-.059.114-.1-.07-.189-.336-.3-.261-.56.009-.032-.108-.1-.158-.138l-.3.221c-.288.075-.662-.171-.617.276l-.731-.018-.359-.529c-.405-.146-.5.187-.614.207l-5.428-.134-.228-.222c-.557-.037-.557-.037-.934.2l-1.446-.036-.937-.533-.422.267c-.386-.206-.687-.452-1.063-.314l-.312.219-1.213-.03-.227-.223-5.732-.141-.259.229-.308-.275-4.156-.1-.3-.272-.315.246c-.341.1-.417-.225-.546-.258l-.623-.015-.317.218-1.085-.027-.691-.346c-.257.257-.493.491-.724.729-.012.013.021.063.049.14l1.129.087.337.517c.388.046.657-.047.825.192.2.287.581-.009.8.215l.209.205.592.015.33-.268.6.015c.153-.176.319-.348.593-.237l.292.244,2.074.051.33-.228.231.226,1.564.038.261-.23.89.022c.178.117.292.378.592.286l.32-.262,2.036.05.468.315.667-.341.366.293.554-.278.364.333.31-.249.3.246.319-.224.25.245.3-.223.55.308.374-.308,1.182.029.376.326.9-.222.189.185.328-.243.585.015.3.272c.328-.022.674.115.979-.054l.231-.186,3.262.08.378.334a3.235,3.235,0,0,1,.586-.306C636.051,652.866,636.324,653.02,636.513,652.661ZM707.9,680.1c-.355.194-.7.067-1.036.079-.3.011-.6-.026-.892-.014-.334.013-.681-.115-1.021.071.154.406.656-.008.861.364a2.576,2.576,0,0,0-.877.235c-.323.242-.822-.07-1.042.349a.8.8,0,0,0-.757.47c.034.034.068.1.1.1.991.029,1.982.053,2.977.077l.321-.262.581.015.278.238,1.073-.515,1.341.033.367-.24.8.02a1.755,1.755,0,0,1,.769-.356l.01-.356a2.009,2.009,0,0,1-.731-.375c-.213.2-.423.419-.739.085l.085-.362.762-.059c.1-.2.421-.257.383-.593-.044-.2-.284-.305-.437-.475-.021-.023-.1-.005-.289-.01a1.139,1.139,0,0,1-.617.308c-.245.059-.428.345-.612.507a1.4,1.4,0,0,0-.991.24c-.306.046-.656-.153-.922.123Zm-81.2,9.471c.006-.273.29-.517,0-.815-.648-.016-1.338-.037-2.027-.043-.066,0-.133.092-.195.138l.292.326-.2.5-.82-1.011-.926-.023-.376-.292c-.792.008-1.578.015-2.364.028-.026,0-.05.06-.092.115l.591.21c0,.152-.015.328-.013.5s-.074.369.141.514l.294-.545.314.008c.038.037.09.066.1.1.04.124.067.251.118.456.409-.016.838.045,1.254.008l.376-.272c.034.181.059.308.087.452l.834.424c.093,0,.337.019.582.012a2.187,2.187,0,0,0,.837-.035c.447-.246.4-.834.887-1Zm11.17-.4c.257.3.806-.027.994.416l2.357.058.549-.278.508.33c.027-.193.044-.317.059-.433a3.149,3.149,0,0,1-.612-.322c-.182-.155-.478-.045-.62-.289-.049-.084-.244-.1-.328-.124l-.512.345-.462-.343-.78-.019C638.567,688.743,638.121,688.824,637.867,689.177Zm-58.021-.2c.176-.1.291-.228.414-.236.343-.021.689.015,1.033.008.073,0,.146-.087.218-.135-.192-.129-.274-.381-.639-.436l-.42.272a2.23,2.23,0,0,1-.963-.1l-.189-.2-1.189-.029-.391.319c-.023-.211-.041-.369-.056-.512l.6-.179c-.15-.181-.254-.366-.485-.422l-.5.439c-.187.1-.43-.044-.482.258l.5.117a.922.922,0,0,0,.5.795l.576.014.32-.247.9.022Zm81.723-39.584,2.619.064.2.183c.421.25.516-.069.725-.14.216.342.561.283.884.25l.56-.473c-.767-.1-1.446-.037-1.954-.1l-.577-.322c-.261.122-.384.384-.709.283l-.3-.263-.572-.014C662.277,649.107,661.907,649.079,661.569,649.392Zm-79.091,35.649c-.073.3-.537-.076-.508.365l.631.016.367.326a6.436,6.436,0,0,0,1.276-.027c.046-.181.078-.306.107-.42l.548-.162c-.163-.285-.444-.126-.644-.2a3.927,3.927,0,0,1-.578-.333l-.4.291-.287-.235c-.236.047-.546-.226-.728.116Zm101.686-24.83-.583-.015-.311-.287a8.858,8.858,0,0,0-1.472.037l.546.5c.286.007.483.015.68.016.384,0,.608.471,1.056.313.049-.017.16.08.222.141.243.239.525.144.8.1.173-.2.072-.434.092-.651l-.748-.38ZM562.6,656.117l-.9-.022-.448.793,1.574.039.347.289.438-.362-.33-.436.334-.447c-.2-.209-.462-.07-.694-.125Zm129.606,25.358a1.448,1.448,0,0,0-.583-.817l-.64-.016c-.041.126-.081.248-.135.416-.161.153-.363.345-.558.541,0,0,.063.063.128.126.851.021,1.734.046,2.618.058.067,0,.136-.091.2-.141-.194-.127-.27-.387-.646-.427ZM577.6,683.706l-.274.224-.32-.276a.362.362,0,0,0-.025.525l3.057.075c.11-.1.254-.221.391-.351.01-.01-.026-.062-.055-.129Zm-1.687-1.716c.208-.1.471.1.7-.115.005-.2.012-.42.018-.617l-.437-.407-.564-.014-.32-.259c-.148.2-.448.268-.439.539C574.955,681.677,575.617,681.618,575.912,681.99Zm-10.647,6.927c.763.014.763.014.984-.168-.325-.242-.773.049-1.108-.229-.029-.15.032-.351-.226-.455-.189.075-.455-.11-.667.12l.263.293c-.32.412-.524-.1-.8-.094-.112.335-.112.335.028.473l.944.071.254.25Zm43.647-2.5c.182.183.215.246.25.246.694.023,1.39.038,2.079.055l.333.3.384-.088c.021-.256.107-.478-.029-.687-.391-.306-.559.291-.9.187l-.4-.253-.3.269ZM542.92,659.231c.037-.148.068-.274.106-.43l.581-.233-.459-.451c-.3.083-.639-.1-.971.079-.081.135-.318.168-.311.427Zm74.7,28a3.486,3.486,0,0,0-1.154-.1.749.749,0,0,0-.261.078c-.078.136-.317.165-.3.371.211.178.469.052.688.108l.308.283c.233-.044.487.106.7-.1Q617.608,687.565,617.618,687.228Zm-64.628-7.212-.331-.3-.389.085,1.04.995.171-.134c.3-.149.563.047.8-.164,0-.1.007-.228.01-.334-.056-.051-.089-.11-.125-.111C553.775,680.033,553.379,680.026,552.989,680.016Zm53.545,4.933c.23.168.336.44.632.507.176-.206.076-.438.092-.656l-.8-.406a1.766,1.766,0,0,0-.99.093,5.488,5.488,0,0,0,.517.449Zm-61.1,4.7.393.464a6.272,6.272,0,0,0,1.459-.062l-.834-.667C546.262,689.75,545.774,689.421,545.429,689.645Zm40.052-9.108-.3-.278c-.251.227-.159.487-.091.78.122.016.257.043.393.051.195.012.39.018.585.014.135,0,.269-.029.469-.052l-.106-.492Zm30.952,2.147a7.373,7.373,0,0,0-.459.759c-.041.088.057.233.089.342l.623.015.429-.714-.379-.394ZM553.026,657.27c-.427.024-.424.023-.284.285.1.185.188.373.268.533.268.066.388-.087.549-.187a2.042,2.042,0,0,1,.513-.159c-.053-.246.107-.484-.176-.77l-.467.661Zm107.606,27.608-.71-.017-.316.266-.317-.3-.585.1.712.476c.3.008.685.019,1.071.022.035,0,.071-.056.132-.107C660.622,685.218,660.626,685.1,660.632,684.878ZM587.4,689.657c.01-.3-.241-.164-.389-.21l-.3-.28-.507-.013-1.082.529c.725.018,1.152.041,1.579.034C586.935,689.712,587.182,689.816,587.4,689.657Zm41.5-4.439c.418-.026.847.047,1.281,0-.032-.293-.266-.381-.4-.551-.418.026-.847-.047-1.28,0C628.533,684.959,628.767,685.048,628.9,685.218Zm-21.257-39.646-.589-.015-.308-.276-.524.463a2.238,2.238,0,0,1,1.217.367c.079.071.29.034.435.014.067-.009.122-.1.182-.148ZM661.7,685.443c-.185-.091-.253-.391-.48-.089l.1.36.622.015c.109.1.2.232.322.278a1.176,1.176,0,0,0,.426-.021l.012-.4a2.051,2.051,0,0,1-.735-.371Zm-125.51,3.071c.555-.053.924-.423,1.328-.3l.492-.38c-.093-.057-.187-.155-.242-.139-.212.062-.412.16-.844.339-.073.047-.444-.285-.722.031C536.2,688.158,536.2,688.248,536.191,688.515Zm81.649-4.129c.417.033.687-.343,1.1-.385l-.435-.426-.318.249-.3-.26A.69.69,0,0,0,617.841,684.385ZM531.266,659l-.83.351.089.475c.286-.155.582.1.819-.179C531.3,659.437,531.449,659.206,531.266,659Zm16.507,20.747c-.171-.118-.249-.343-.5-.379-.025.35-.459.537-.4.98l.668.132C547.28,680.053,547.584,679.934,547.773,679.749Zm154.351,1.441-.827.409c.373.207.717.1,1.073.146.073-.184.367-.214.393-.457C702.552,681.1,702.3,681.229,702.124,681.191Zm-110.443,6.658a2.1,2.1,0,0,0,1.118.006l-.321-.51c-.349.046-.61-.091-.787.147C591.689,687.582,591.686,687.673,591.681,687.849Zm-70.77-27.484.705.017c.145-.148.372-.232.448-.569-.391.085-.748-.107-1.14.1ZM695.5,681.3c-.125.16-.37.231-.4.461.211.171.462.054.687.1.125-.16.37-.231.4-.46C695.979,681.226,695.727,681.343,695.5,681.3Zm-155.891,7.547c-.216.183-.233.368,0,.555.229-.044.482.107.745-.126-.024-.119-.055-.273-.084-.413Zm-11.825-28.887c-.071-.334.086-.569-.157-.817l-.464.075c.058.276-.1.511.116.731ZM621.558,687.5l-.087-.482c-.316-.046-.6-.178-.857.083.02.112.042.237.067.378Zm-71.273,2.016c-.347-.118-.394-.481-.906-.414l-.342.444A1.673,1.673,0,0,0,550.286,689.518Zm13.864-8.841-.328-.129-.909.436a1.608,1.608,0,0,0,1.227.03ZM688.63,659.521l-.417.369.784.394.394-.37Z" transform="translate(0)" fill="#f3212c"/>
    <path id="Path_22531" data-name="Path 22531" d="M723.837,750.03l.084.37.68.03.089.19-.564.448-.2-.308-.641-.028-.235.347-.427-.019-.223-.367-1.3-.057-.159.25c-.064.031-.128.089-.192.087-.466-.012-.932-.036-1.45-.059-.014-.2-.028-.409-.054-.788l.416.49.445-.384.8.035.1-.361c.274.072.565-.09.819.114l.149.289,1.3.057.236-.35Z" transform="translate(-114.199 -57.972)" fill="#f3212c"/>
    <path id="Path_22532" data-name="Path 22532" d="M620.347,728.211c0,.251-.007.43,0,.267l-.358,1.038-.431-.524c-.139,0-.316-.13-.481.061-.037.244.062.245.164.269a.5.5,0,0,1,.182.128.523.523,0,0,1-.005.13c-.235.2-.484.046-.721.066l-.234-.375-.451-.02c-.026-.16-.053-.319-.092-.553.238-.1.5-.112.668-.318.213-.254.4-.13.6-.1l.15.263.379-.334.311.382Z" transform="translate(-64.645 -46.266)" fill="#f3212c"/>
    <path id="Path_22533" data-name="Path 22533" d="M743.643,751.381l-.528.467-.393-.687-.924-.04c-.028-.208-.05-.37-.083-.609.35-.242.7-.057,1.01-.087l.193.338.225-.279c.143.542.492.2.721.446A.625.625,0,0,1,743.643,751.381Z" transform="translate(-125.921 -58.159)" fill="#f3212c"/>
    <path id="Path_22534" data-name="Path 22534" d="M674.285,752.557a1.812,1.812,0,0,1,.1-.247c.128-.212.26-.417.394-.619.014-.021.05,0,.074,0l.187.327,2.219.1c-.078.59-.329.2-.5.333l-.224.328-.266-.433-.411.369-.158-.277-.342.318-.391-.378C674.694,752.213,674.58,753.143,674.285,752.557Z" transform="translate(-92.439 -58.666)" fill="#f3212c"/>
    <path id="Path_22535" data-name="Path 22535" d="M587.428,725.618l.187.723c.14-.217.248-.49.462-.317l.267.925c-.18.381-.456-.079-.627.134l-1.094-1.02c.164-.088.313-.107.41-.236C587.153,725.67,587.255,725.536,587.428,725.618Z" transform="translate(-49.225 -44.881)" fill="#f3212c"/>
    <path id="Path_22536" data-name="Path 22536" d="M576.616,747.236c0,.178-.006.356-.009.546l-.314.476-.681-.663-.211.307-.482-.021c-.015-.193-.032-.4-.045-.557.073-.09.1-.155.128-.154C575.541,747.188,576.079,747.213,576.616,747.236Z" transform="translate(-39.864 -56.903)" fill="#f3212c"/>
    <path id="Path_22537" data-name="Path 22537" d="M702.692,750.853l.123-.193c.178.156.419.255.551.509.194.374.512-.034.665.39-.027.042-.053.119-.079.119-.315-.005-.629-.022-.93-.035l-.172-.3-.238.325-.473-.021c-.021-.174-.045-.375-.064-.529C702.27,750.786,702.462,751.056,702.692,750.853Z" transform="translate(-106.343 -58.266)" fill="#f3212c"/>
    <path id="Path_22538" data-name="Path 22538" d="M749.506,749.264l.345-.4.385.672c.317-.072.567.28.847.46.141.091.243.35.364.536-.294.462-.4-.018-.556-.2l-.331-.015c-.349-.314-.7-.629-1.053-.955C749.492,749.346,749.507,749.245,749.506,749.264Z" transform="translate(-129.814 -57.563)" fill="#f3212c"/>
    <path id="Path_22539" data-name="Path 22539" d="M708.764,747.53c-.01-.339.13-.375.275-.342.108.025.187.142.159.361l.187.573-.6.466-.578-.026c-.123-.112-.106-.164-.037-.28.148-.249.3-.431.521-.47C708.718,747.808,708.738,747.629,708.764,747.53Z" transform="translate(-109.447 -56.906)" fill="#f3212c"/>
    <path id="Path_22540" data-name="Path 22540" d="M716.077,750.528c0,.114,0,.232-.005.351-.162.266-.726.248-1.513-.048.087-.255.237-.2.367-.171.166.034.243-.184.363-.276s.272-.054.409-.054S715.983,750.282,716.077,750.528Z" transform="translate(-112.597 -58.135)" fill="#f3212c"/>
    <path id="Path_22541" data-name="Path 22541" d="M691.325,751.962l-.718-.031-.263-.573.526-.452c.092.3.323.287.53.5Z" transform="translate(-100.679 -58.363)" fill="#f3212c"/>
    <path id="Path_22542" data-name="Path 22542" d="M543.521,685.376a3.14,3.14,0,0,1,1.046.094l-.458.614a3.158,3.158,0,0,1-1.046-.094Z" transform="translate(-35.351 -23.403)" fill="#f3212c"/>
    <path id="Path_22543" data-name="Path 22543" d="M751.818,747.678l.584.026c.117.313.462.464.242,1.048l-.518-.023c-.037-.189-.068-.406-.123-.606A3.609,3.609,0,0,0,751.818,747.678Z" transform="translate(-131.177 -57.101)" fill="#f3212c"/>
    <path id="Path_22544" data-name="Path 22544" d="M885.739,658.249l.283,1.033c-.116.016-.264.1-.3.03-.141-.272-.314-.413-.52-.414,0-.243.007-.4.009-.533C885.386,658.127,885.567,658.3,885.739,658.249Z" transform="translate(-185.623 -5.714)" fill="#f3212c"/>
    <path id="Path_22545" data-name="Path 22545" d="M697.05,752.028l-.3-.519c0-.116,0-.235.006-.375.252-.273.526-.131.793-.088C697.6,751.256,697.6,751.256,697.05,752.028Z" transform="translate(-103.893 -58.387)" fill="#f3212c"/>
    <path id="Path_22546" data-name="Path 22546" d="M896.376,659.651c0-.118,0-.235.006-.352.129-.31.319-.131.574-.191l.217.616C896.8,659.886,896.8,659.879,896.376,659.651Z" transform="translate(-192.695 -6.015)" fill="#f3212c"/>
    <path id="Path_22547" data-name="Path 22547" d="M699.2,751.468l.31-.4.286.5c0,.292-.009.571-.013.827C699.655,752.5,699.655,752.5,699.2,751.468Z" transform="translate(-105.144 -58.426)" fill="#f3212c"/>
    <path id="Path_22548" data-name="Path 22548" d="M614.344,729.01l.251-.369.318.159-.337.564-.492.017-.31-.626.332-.135Z" transform="translate(-62.723 -46.354)" fill="#f3212c"/>
    <path id="Path_22549" data-name="Path 22549" d="M569.9,671.333c-.016.215-.031.414-.052.7l-.272-.418-.184.262-.446-.5A.925.925,0,0,1,569.9,671.333Z" transform="translate(-51.728 -15.904)" fill="#f3212c"/>
    <path id="Path_22550" data-name="Path 22550" d="M748.427,748.915c-.208-.047-.42.068-.631-.147-.005-.135-.012-.292-.017-.433.2-.276.392-.161.627-.054Z" transform="translate(-129.225 -57.291)" fill="#f3212c"/>
    <path id="Path_22551" data-name="Path 22551" d="M615.134,746.457l.293.514c-.033.072-.071.212-.1.208-.235-.036-.484.1-.727-.15C614.729,746.7,614.861,746.406,615.134,746.457Z" transform="translate(-63.163 -56.622)" fill="#f3212c"/>
  </g>
</svg>
